<?xml version="1.0" encoding="UTF-8" standalone="no"?>
<svg
   width="500"
   height="500"
   viewBox="0 0 132.29166 132.29167"
   version="1.1"
   id="svg1"
   sodipodi:docname="bamboo-leaves.svg"
   inkscape:version="1.4 (86a8ad7, 2024-10-11)"
   xmlns:inkscape="http://www.inkscape.org/namespaces/inkscape"
   xmlns:sodipodi="http://sodipodi.sourceforge.net/DTD/sodipodi-0.dtd"
   xmlns="http://www.w3.org/2000/svg"
   xmlns:svg="http://www.w3.org/2000/svg">
  <defs
     id="defs1" />
  <sodipodi:namedview
     id="namedview1"
     pagecolor="#ffffff"
     bordercolor="#000000"
     borderopacity="0.25"
     inkscape:showpageshadow="2"
     inkscape:pageopacity="0.0"
     inkscape:pagecheckerboard="0"
     inkscape:deskcolor="#d1d1d1"
     inkscape:zoom="1.768"
     inkscape:cx="249.71719"
     inkscape:cy="250"
     inkscape:window-width="1920"
     inkscape:window-height="1080"
     inkscape:window-x="1920"
     inkscape:window-y="0"
     inkscape:window-maximized="1"
     inkscape:current-layer="svg1" />
  <g
     id="g1"
     transform="translate(0,2.6458334)">
    <path
       d="M 61.45673,17.18468 C 30.922013,18.104245 5.6892179,41.294596 2.2014346,71.643608 1.6913362,76.770599 1.8274336,81.941367 2.6065292,87.034425 17.975993,85.571019 32.517218,79.391845 44.238528,69.343251 c -2.056631,20.755412 6.116669,41.213139 21.908746,54.837539 2.687607,-2.28916 5.181443,-4.79651 7.456048,-7.49646 10.978769,-13.17357 16.219274,-30.197962 14.549286,-47.265154 11.703737,10.002387 26.206502,16.153464 41.532532,17.615249 0.77909,-5.093058 0.91519,-10.263826 0.40509,-15.390817 C 126.3223,39.575307 98.399698,15.879293 66.145832,17.378339 64.585831,17.254157 63.021658,17.189557 61.45673,17.18468 Z"
       style="fill:#169221;stroke:#aba617;stroke-width:3.19987;stroke-linecap:round;stroke-linejoin:round;paint-order:markers stroke fill"
       id="path1" />
  </g>
</svg>
