<?xml version="1.0" encoding="UTF-8" standalone="no"?>
<svg
   width="500"
   height="500"
   viewBox="0 0 132.29166 132.29166"
   version="1.1"
   id="svg1"
   xmlns:xlink="http://www.w3.org/1999/xlink"
   xmlns="http://www.w3.org/2000/svg"
   xmlns:svg="http://www.w3.org/2000/svg"
   xmlns:rdf="http://www.w3.org/1999/02/22-rdf-syntax-ns#"
   xmlns:cc="http://creativecommons.org/ns#"
   xmlns:dc="http://purl.org/dc/elements/1.1/">
  <path
     id="path19"
     style="display:inline;fill:#ab173a;stroke:#aba617;stroke-width:3.2;paint-order:markers stroke fill"
     d="M 66.144752,3.5893501 C 51.44209,3.6172986 38.866632,14.16347 36.278059,28.636491 21.713681,26.625953 7.7977691,35.326691 3.2276068,49.300845 -1.2892827,63.292698 4.8548487,78.511803 17.819837,85.446016 c -6.412991,13.230406 -2.438257,29.154194 9.439978,37.818924 11.911146,8.61933 28.283749,7.47892 38.884937,-2.70848 10.601188,10.1874 26.973791,11.32781 38.884938,2.70848 11.89045,-8.64397 15.89202,-24.557827 9.50435,-37.797867 C 127.48436,78.510189 133.601,63.283175 129.0619,49.300845 124.49671,35.344569 110.6081,26.646373 96.058973,28.631679 93.465158,14.142942 80.863833,3.5938956 66.144752,3.5893501 Z" />
</svg>
